<?xml version="1.0" standalone="no"?>
<!DOCTYPE svg PUBLIC "-//W3C//DTD SVG 20010904//EN"
 "http://www.w3.org/TR/2001/REC-SVG-20010904/DTD/svg10.dtd">
<svg version="1.0" xmlns="http://www.w3.org/2000/svg"
 width="167.000000pt" height="167.000000pt" viewBox="0 0 167.000000 167.000000"
 preserveAspectRatio="xMidYMid meet">
<metadata>
Created by potrace 1.14, written by Peter Selinger 2001-2017
</metadata>
<g transform="translate(0.000000,167.000000) scale(0.100000,-0.100000)"
fill="#000000" stroke="none">
<path d="M630 1461 c-36 -37 -184 -190 -330 -340 -146 -150 -266 -277 -268
-282 -4 -9 661 -679 674 -679 5 0 49 40 99 90 l90 90 99 -99 99 -99 99 99 c55
54 102 99 104 99 3 0 48 -43 100 -95 l96 -94 89 89 c61 61 89 96 89 112 0 16
-28 51 -90 113 l-89 89 -83 -82 -83 -82 -217 218 c-120 119 -218 221 -218 226
0 5 49 59 109 120 61 61 157 160 215 221 l104 109 77 -74 c41 -41 80 -77 86
-79 13 -4 189 178 189 197 0 13 -178 191 -191 192 -3 0 -47 -43 -98 -95 -51
-52 -95 -95 -99 -95 -3 0 -47 41 -98 90 -50 50 -96 90 -101 90 -5 0 -48 -40
-96 -90 l-86 -90 -101 100 c-56 55 -103 100 -103 99 -1 0 -31 -31 -67 -68z
m-5 -260 c51 -50 72 -77 66 -85 -5 -6 -68 -72 -140 -146 -72 -74 -131 -140
-131 -145 0 -6 33 -43 73 -82 39 -39 101 -101 136 -136 l64 -66 -72 -70 c-40
-39 -76 -71 -79 -71 -4 0 -105 98 -225 219 l-218 218 193 198 c106 108 202
208 213 221 10 14 25 23 32 22 7 -2 46 -36 88 -77z m379 -3 c42 -39 76 -75 76
-80 0 -8 -28 -38 -182 -194 l-91 -92 142 -143 142 -142 -78 -79 c-42 -43 -80
-78 -84 -78 -13 0 -434 431 -431 441 2 7 70 80 152 163 82 83 175 179 207 213
32 34 61 62 65 62 3 1 40 -31 82 -71z"/>
</g>
</svg>
